<svg width="745" height="748" viewBox="0 0 745 748" fill="none" xmlns="http://www.w3.org/2000/svg">
<g clip-path="url(#clip0_2_2)">
<path d="M673.219 629.347L679.779 603.475C691.41 598.546 703.31 594.276 715.422 590.687L716.25 602.711L719.608 589.464C734.629 585.17 744.848 583.281 744.848 583.281C744.848 583.281 731.048 635.77 702.094 675.898L668.36 681.824L694.567 685.603C690.925 689.985 687.011 694.134 682.848 698.025C640.733 737.117 593.824 755.053 578.075 738.085C562.326 721.117 583.7 675.673 625.815 636.585C638.871 624.466 655.272 614.741 671.69 607.085L673.219 629.347Z" fill="#F2F2F2"/>
<path d="M610.833 601.245L603.075 575.707C610.483 565.475 618.462 555.669 626.975 546.336L633.899 556.201L629.927 543.125C640.568 531.689 648.339 524.79 648.339 524.79C648.339 524.79 663.654 576.857 659.614 626.174L633.799 648.684L658.191 638.372C657.337 644.007 656.13 649.583 654.577 655.066C638.731 710.3 607.846 749.901 585.594 743.517C563.342 737.133 558.148 687.182 573.994 631.948C578.906 614.825 587.92 598.022 598.017 582.983L610.833 601.245Z" fill="#F2F2F2"/>
<path d="M225.097 176.983H229.189V64.883C229.189 56.3624 230.867 47.9253 234.128 40.0534C237.389 32.1814 242.168 25.0287 248.193 19.0038C254.218 12.9788 261.37 8.19959 269.242 4.93892C277.114 1.67824 285.551 0 294.072 0H531.579C548.787 0 565.29 6.83587 577.458 19.0038C589.626 31.1717 596.462 47.675 596.462 64.883V679.883C596.462 688.404 594.784 696.841 591.523 704.713C588.262 712.585 583.483 719.737 577.458 725.762C571.433 731.787 564.281 736.566 556.409 739.827C548.537 743.088 540.1 744.766 531.579 744.766H294.072C276.864 744.766 260.361 737.93 248.193 725.762C236.026 713.594 229.19 697.091 229.19 679.883V256.778H225.098L225.097 176.983Z" fill="#E6E6E6"/>
<path d="M291.454 16.874H322.454C321.028 20.3696 320.484 24.1622 320.869 27.9177C321.255 31.6731 322.558 35.2762 324.664 38.4094C326.77 41.5426 329.614 44.1098 332.946 45.8848C336.278 47.6598 339.995 48.5882 343.77 48.588H479.835C483.61 48.5878 487.327 47.6593 490.659 45.8841C493.99 44.109 496.834 41.5418 498.94 38.4086C501.046 35.2754 502.348 31.6725 502.734 27.9172C503.119 24.1619 502.575 20.3695 501.149 16.874H530.105C542.956 16.874 555.28 21.979 564.367 31.0659C573.454 40.1528 578.559 52.4772 578.559 65.328V679.435C578.559 692.286 573.454 704.61 564.367 713.697C555.28 722.784 542.956 727.889 530.105 727.889H291.454C278.603 727.889 266.279 722.784 257.192 713.697C248.105 704.61 243 692.286 243 679.435V65.327C243 52.4764 248.105 40.1522 257.192 31.0655C266.279 21.9788 278.603 16.874 291.454 16.874Z" fill="white"/>
<path d="M391.438 261.503C391.437 257.21 392.567 252.993 394.714 249.276C396.861 245.559 399.949 242.473 403.668 240.329C399.951 238.182 395.734 237.052 391.442 237.052C387.15 237.051 382.933 238.18 379.216 240.326C375.499 242.472 372.412 245.559 370.266 249.276C368.119 252.993 366.989 257.209 366.989 261.502C366.989 265.794 368.119 270.01 370.266 273.727C372.412 277.444 375.499 280.531 379.216 282.677C382.933 284.823 387.15 285.952 391.442 285.952C395.734 285.951 399.951 284.821 403.668 282.674C399.949 280.53 396.861 277.445 394.714 273.728C392.567 270.012 391.437 265.795 391.438 261.503Z" fill="#CCCCCC"/>
<path d="M422.175 261.503C422.174 257.21 423.304 252.993 425.451 249.276C427.598 245.559 430.686 242.473 434.405 240.329C430.688 238.182 426.471 237.052 422.179 237.052C417.887 237.051 413.67 238.18 409.953 240.326C406.236 242.472 403.149 245.559 401.003 249.276C398.856 252.993 397.726 257.209 397.726 261.502C397.726 265.794 398.856 270.01 401.003 273.727C403.149 277.444 406.236 280.531 409.953 282.677C413.67 284.823 417.887 285.952 422.179 285.952C426.471 285.951 430.688 284.821 434.405 282.674C430.686 280.53 427.598 277.445 425.451 273.728C423.304 270.012 422.174 265.795 422.175 261.503Z" fill="#CCCCCC"/>
<path d="M452.214 285.952C465.717 285.952 476.664 275.005 476.664 261.502C476.664 247.999 465.717 237.052 452.214 237.052C438.71 237.052 427.764 247.999 427.764 261.502C427.764 275.005 438.71 285.952 452.214 285.952Z" fill="#EB1145"/>
<path d="M493.076 337.869H350.576C349.219 337.867 347.918 337.328 346.959 336.369C346 335.409 345.46 334.109 345.459 332.752V190.252C345.46 188.895 346 187.595 346.959 186.635C347.918 185.676 349.219 185.137 350.576 185.135H493.076C494.432 185.137 495.733 185.676 496.692 186.635C497.651 187.595 498.191 188.895 498.193 190.252V332.752C498.191 334.109 497.651 335.409 496.692 336.369C495.733 337.328 494.432 337.867 493.076 337.869ZM350.576 187.183C349.762 187.184 348.981 187.508 348.406 188.083C347.83 188.659 347.506 189.439 347.506 190.253V332.753C347.506 333.567 347.83 334.347 348.406 334.923C348.981 335.499 349.762 335.822 350.576 335.823H493.076C493.89 335.822 494.67 335.499 495.246 334.923C495.821 334.347 496.145 333.567 496.146 332.753V190.253C496.145 189.439 495.821 188.659 495.246 188.083C494.67 187.508 493.89 187.184 493.076 187.183H350.576Z" fill="#CCCCCC"/>
<path d="M525.332 412.584H306.78V414.631H525.332V412.584Z" fill="#CCCCCC"/>
<path d="M525.77 551.066H307.218V553.113H525.77V551.066Z" fill="#CCCCCC"/>
<path d="M313.682 399.804C317.493 399.804 320.584 396.714 320.584 392.902C320.584 389.09 317.493 386 313.682 386C309.87 386 306.78 389.09 306.78 392.902C306.78 396.714 309.87 399.804 313.682 399.804Z" fill="#EB1145"/>
<path d="M314.12 538.286C317.931 538.286 321.022 535.196 321.022 531.384C321.022 527.572 317.931 524.482 314.12 524.482C310.308 524.482 307.218 527.572 307.218 531.384C307.218 535.196 310.308 538.286 314.12 538.286Z" fill="#EB1145"/>
<path d="M525.332 481.6H306.78V483.647H525.332V481.6Z" fill="#CCCCCC"/>
<path d="M313.682 468.821C317.493 468.821 320.584 465.731 320.584 461.919C320.584 458.107 317.493 455.017 313.682 455.017C309.87 455.017 306.78 458.107 306.78 461.919C306.78 465.731 309.87 468.821 313.682 468.821Z" fill="#EB1145"/>
<path d="M521.348 630.208H452.28C451.087 630.207 449.943 629.732 449.099 628.889C448.255 628.045 447.781 626.901 447.78 625.708V601.5C447.781 600.307 448.255 599.163 449.099 598.319C449.943 597.476 451.087 597.001 452.28 597H521.348C522.541 597.001 523.685 597.476 524.529 598.319C525.372 599.163 525.847 600.307 525.848 601.5V625.708C525.847 626.901 525.372 628.045 524.529 628.889C523.685 629.732 522.541 630.207 521.348 630.208Z" fill="#EB1145"/>
<path d="M336.196 399.804C340.007 399.804 343.098 396.714 343.098 392.902C343.098 389.09 340.007 386 336.196 386C332.384 386 329.294 389.09 329.294 392.902C329.294 396.714 332.384 399.804 336.196 399.804Z" fill="#EB1145"/>
<path d="M336.634 538.286C340.445 538.286 343.536 535.196 343.536 531.384C343.536 527.572 340.445 524.482 336.634 524.482C332.822 524.482 329.732 527.572 329.732 531.384C329.732 535.196 332.822 538.286 336.634 538.286Z" fill="#EB1145"/>
<path d="M358.71 399.804C362.521 399.804 365.612 396.714 365.612 392.902C365.612 389.09 362.521 386 358.71 386C354.898 386 351.808 389.09 351.808 392.902C351.808 396.714 354.898 399.804 358.71 399.804Z" fill="#EB1145"/>
<path d="M359.148 538.286C362.959 538.286 366.05 535.196 366.05 531.384C366.05 527.572 362.959 524.482 359.148 524.482C355.336 524.482 352.246 527.572 352.246 531.384C352.246 535.196 355.336 538.286 359.148 538.286Z" fill="#EB1145"/>
<path d="M336.196 468.821C340.007 468.821 343.098 465.731 343.098 461.919C343.098 458.107 340.007 455.017 336.196 455.017C332.384 455.017 329.294 458.107 329.294 461.919C329.294 465.731 332.384 468.821 336.196 468.821Z" fill="#EB1145"/>
<path d="M358.71 468.821C362.521 468.821 365.612 465.731 365.612 461.919C365.612 458.107 362.521 455.017 358.71 455.017C354.898 455.017 351.808 458.107 351.808 461.919C351.808 465.731 354.898 468.821 358.71 468.821Z" fill="#EB1145"/>
<path d="M2.78189 747.077H720.768C722.305 747.077 723.55 746.531 723.55 745.859C723.55 745.187 722.305 744.64 720.768 744.64H2.78189C1.24588 744.64 -9.15527e-05 745.186 -9.15527e-05 745.859C-9.15527e-05 746.532 1.24588 747.077 2.78189 747.077Z" fill="#3F3D56"/>
<path d="M180.171 489.461C179.681 489.686 179.209 489.949 178.761 490.249L133.908 471.106L132.307 459.29L114.386 459.181L115.445 486.279L174.644 501.935C174.769 502.346 174.918 502.75 175.092 503.143C175.948 504.969 177.324 506.502 179.048 507.549C180.773 508.595 182.767 509.109 184.783 509.026C186.798 508.942 188.744 508.265 190.375 507.08C192.007 505.894 193.252 504.253 193.954 502.362C194.656 500.471 194.784 498.415 194.321 496.452C193.858 494.489 192.826 492.706 191.353 491.328C189.881 489.95 188.034 489.037 186.044 488.705C184.055 488.373 182.012 488.636 180.171 489.461Z" fill="#FFB8B8"/>
<path d="M107.868 735.021H120.128L125.96 687.733L107.866 687.734L107.868 735.021Z" fill="#FFB8B8"/>
<path d="M128.885 731.518H105.241V746.405H143.772C143.772 742.456 142.204 738.67 139.412 735.878C136.62 733.086 132.833 731.518 128.885 731.518Z" fill="#2F2E41"/>
<path d="M60.188 731.557L72.389 732.759L82.83 686.271L64.8229 684.497L60.188 731.557Z" fill="#FFB8B8"/>
<path d="M81.4468 730.131L57.9167 727.813L56.4574 742.629L94.8027 746.406C94.9943 744.46 94.8008 742.496 94.2334 740.625C93.6659 738.754 92.7354 737.013 91.4952 735.502C90.255 733.991 88.7293 732.739 87.0051 731.817C85.281 730.896 83.3923 730.323 81.4468 730.131Z" fill="#2F2E41"/>
<path d="M104.455 409.135C90.8908 409.135 79.8944 398.138 79.8944 384.574C79.8944 371.009 90.8908 360.013 104.455 360.013C118.02 360.013 129.016 371.009 129.016 384.574C129.016 398.138 118.02 409.135 104.455 409.135Z" fill="#FFB8B8"/>
<path d="M122.868 725.458C123.921 725.461 124.942 725.091 125.75 724.415C126.557 723.738 127.1 722.798 127.283 721.761C133.628 686.535 154.37 571.355 154.867 568.165C154.878 568.092 154.883 568.018 154.882 567.943V559.355C154.883 559.043 154.785 558.738 154.603 558.483L151.863 554.645C151.732 554.461 151.562 554.309 151.363 554.2C151.165 554.092 150.945 554.03 150.719 554.02C135.097 553.288 83.935 551.142 81.4633 554.23C78.9809 557.333 79.8578 566.736 80.059 568.59L80.0492 568.783L57.0639 715.778C56.884 716.951 57.1729 718.147 57.8681 719.108C58.5633 720.069 59.6089 720.717 60.7787 720.913L75.1352 723.278C76.2044 723.45 77.2997 723.232 78.2219 722.665C79.1442 722.097 79.8321 721.217 80.1605 720.186C84.601 705.997 99.4896 658.268 104.65 639.799C104.682 639.682 104.756 639.581 104.857 639.514C104.959 639.448 105.081 639.42 105.201 639.437C105.321 639.454 105.431 639.514 105.51 639.606C105.589 639.698 105.632 639.816 105.63 639.938C105.372 657.543 104.749 702.461 104.535 717.975L104.511 719.645C104.502 720.777 104.917 721.87 105.675 722.71C106.432 723.55 107.478 724.075 108.604 724.182L122.448 725.439C122.588 725.452 122.729 725.458 122.868 725.458Z" fill="#2F2E41"/>
<path d="M120.043 418.792C124.329 421.34 126.894 426.023 128.366 430.787C131.091 439.609 132.731 448.729 133.25 457.947L134.806 485.547L154.061 558.717C137.372 572.838 127.745 569.629 105.28 558.078C82.8153 546.528 80.2482 561.929 80.2482 561.929L75.7558 499.671L69.3374 431.639C70.7781 429.904 72.4088 428.336 74.1989 426.964C80.1315 422.351 87.0338 419.145 94.3857 417.587C101.738 416.028 109.347 416.159 116.641 417.969L120.043 418.792Z" fill="#EB1145"/>
<path d="M126.297 504.239C125.779 504.434 125.278 504.669 124.797 504.943L80.4484 482.746L79.7124 470.72L61.4186 469.459L60.4381 496.872L119.704 516.471C120.188 518.547 121.292 520.426 122.87 521.858C124.448 523.291 126.425 524.209 128.537 524.491C130.65 524.773 132.798 524.405 134.697 523.436C136.595 522.468 138.153 520.944 139.165 519.068C140.176 517.192 140.592 515.052 140.358 512.934C140.124 510.815 139.25 508.819 137.853 507.209C136.456 505.599 134.602 504.453 132.538 503.922C130.474 503.392 128.297 503.502 126.297 504.239Z" fill="#FFB8B8"/>
<path d="M69.6584 431.95C58.7469 435.801 56.8249 477.524 56.8249 477.524C69.6616 470.463 85.0663 482.017 85.0663 482.017C85.0663 482.017 88.2755 471.105 92.1266 456.985C93.2895 453.013 93.4285 448.811 92.5308 444.771C91.6331 440.731 89.7278 436.984 86.9922 433.878C86.9922 433.878 80.57 428.097 69.6584 431.95Z" fill="#EB1145"/>
<path d="M82.4327 391.069C85.4927 388.621 89.6679 393.071 89.6679 393.071L92.1163 371.037C92.1163 371.037 107.417 372.87 117.21 370.426C127.002 367.981 128.532 379.301 128.532 379.301C129.037 374.728 129.14 370.12 128.838 365.53C128.227 360.021 120.27 354.513 106.193 350.841C92.1163 347.168 84.7721 363.082 84.7721 363.082C74.9785 367.977 79.3727 393.517 82.4327 391.069Z" fill="#2F2E41"/>
</g>
<defs>
<clipPath id="clip0_2_2">
<rect width="744.848" height="747.077" fill="white" transform="matrix(-1 0 0 1 744.848 0)"/>
</clipPath>
</defs>
</svg>
